<svg id="visual" viewBox="0 0 1000 200" width="1000" height="200" xmlns="http://www.w3.org/2000/svg" xmlns:xlink="http://www.w3.org/1999/xlink" version="1.1"><rect x="0" y="0" width="1000" height="200" fill="#FF0000"></rect><path d="M0 116L7.5 115.5C15 115 30 114 45.2 116.7C60.3 119.3 75.7 125.7 90.8 123C106 120.3 121 108.7 136.2 103.7C151.3 98.7 166.7 100.3 181.8 106.3C197 112.3 212 122.7 227.2 121.2C242.3 119.7 257.7 106.3 272.8 104.3C288 102.3 303 111.7 318.2 113.5C333.3 115.3 348.7 109.7 363.8 107.8C379 106 394 108 409.2 107C424.3 106 439.7 102 454.8 99.7C470 97.3 485 96.7 500 98.8C515 101 530 106 545.2 112.7C560.3 119.3 575.7 127.7 590.8 127.3C606 127 621 118 636.2 111.8C651.3 105.7 666.7 102.3 681.8 101.8C697 101.3 712 103.7 727.2 103.3C742.3 103 757.7 100 772.8 98.5C788 97 803 97 818.2 96.7C833.3 96.3 848.7 95.7 863.8 95.2C879 94.7 894 94.3 909.2 98.5C924.3 102.7 939.7 111.3 954.8 116.3C970 121.3 985 122.7 992.5 123.3L1000 124L1000 201L992.5 201C985 201 970 201 954.8 201C939.7 201 924.3 201 909.2 201C894 201 879 201 863.8 201C848.7 201 833.3 201 818.2 201C803 201 788 201 772.8 201C757.7 201 742.3 201 727.2 201C712 201 697 201 681.8 201C666.7 201 651.3 201 636.2 201C621 201 606 201 590.8 201C575.7 201 560.3 201 545.2 201C530 201 515 201 500 201C485 201 470 201 454.8 201C439.7 201 424.3 201 409.2 201C394 201 379 201 363.8 201C348.7 201 333.3 201 318.2 201C303 201 288 201 272.8 201C257.7 201 242.3 201 227.2 201C212 201 197 201 181.8 201C166.7 201 151.3 201 136.2 201C121 201 106 201 90.8 201C75.7 201 60.3 201 45.2 201C30 201 15 201 7.5 201L0 201Z" fill="#fa7268"></path><path d="M0 122L7.5 126.2C15 130.3 30 138.7 45.2 139.7C60.3 140.7 75.7 134.3 90.8 130C106 125.7 121 123.3 136.2 125.3C151.3 127.3 166.7 133.7 181.8 134.3C197 135 212 130 227.2 132.8C242.3 135.7 257.7 146.3 272.8 151.7C288 157 303 157 318.2 153.5C333.3 150 348.7 143 363.8 139.5C379 136 394 136 409.2 136.3C424.3 136.7 439.7 137.3 454.8 136.7C470 136 485 134 500 136.7C515 139.3 530 146.7 545.2 145.3C560.3 144 575.7 134 590.8 133.2C606 132.3 621 140.7 636.2 141.7C651.3 142.7 666.7 136.3 681.8 132.2C697 128 712 126 727.2 128.7C742.3 131.3 757.7 138.7 772.8 138.2C788 137.7 803 129.3 818.2 129C833.3 128.7 848.7 136.3 863.8 139.2C879 142 894 140 909.2 136.3C924.3 132.7 939.7 127.3 954.8 130.5C970 133.7 985 145.3 992.5 151.2L1000 157L1000 201L992.5 201C985 201 970 201 954.8 201C939.7 201 924.3 201 909.2 201C894 201 879 201 863.8 201C848.7 201 833.3 201 818.2 201C803 201 788 201 772.8 201C757.7 201 742.3 201 727.2 201C712 201 697 201 681.8 201C666.7 201 651.3 201 636.2 201C621 201 606 201 590.8 201C575.7 201 560.3 201 545.2 201C530 201 515 201 500 201C485 201 470 201 454.8 201C439.7 201 424.3 201 409.2 201C394 201 379 201 363.8 201C348.7 201 333.3 201 318.2 201C303 201 288 201 272.8 201C257.7 201 242.3 201 227.2 201C212 201 197 201 181.8 201C166.7 201 151.3 201 136.2 201C121 201 106 201 90.8 201C75.7 201 60.3 201 45.2 201C30 201 15 201 7.5 201L0 201Z" fill="#ff989e"></path><path d="M0 159L7.5 160C15 161 30 163 45.2 163.3C60.3 163.7 75.7 162.3 90.8 161.2C106 160 121 159 136.2 157.2C151.3 155.3 166.7 152.7 181.8 154.8C197 157 212 164 227.2 168.3C242.3 172.7 257.7 174.3 272.8 173.2C288 172 303 168 318.2 167C333.3 166 348.7 168 363.8 166.8C379 165.7 394 161.3 409.2 161.3C424.3 161.3 439.7 165.7 454.8 168.7C470 171.7 485 173.3 500 172.3C515 171.3 530 167.7 545.2 166.5C560.3 165.3 575.7 166.7 590.8 165.8C606 165 621 162 636.2 162.3C651.3 162.7 666.7 166.3 681.8 166.5C697 166.7 712 163.3 727.2 163.8C742.3 164.3 757.7 168.7 772.8 170.3C788 172 803 171 818.2 169.7C833.3 168.3 848.7 166.7 863.8 166.5C879 166.3 894 167.7 909.2 168C924.3 168.3 939.7 167.7 954.8 166C970 164.3 985 161.7 992.5 160.3L1000 159L1000 201L992.5 201C985 201 970 201 954.8 201C939.7 201 924.3 201 909.2 201C894 201 879 201 863.8 201C848.7 201 833.3 201 818.2 201C803 201 788 201 772.8 201C757.7 201 742.3 201 727.2 201C712 201 697 201 681.8 201C666.7 201 651.3 201 636.2 201C621 201 606 201 590.8 201C575.7 201 560.3 201 545.2 201C530 201 515 201 500 201C485 201 470 201 454.8 201C439.7 201 424.3 201 409.2 201C394 201 379 201 363.8 201C348.7 201 333.3 201 318.2 201C303 201 288 201 272.8 201C257.7 201 242.3 201 227.2 201C212 201 197 201 181.8 201C166.7 201 151.3 201 136.2 201C121 201 106 201 90.8 201C75.7 201 60.3 201 45.2 201C30 201 15 201 7.5 201L0 201Z" fill="#ffc0cb"></path></svg>