<svg id="visual" viewBox="0 0 1000 200" width="1000" height="200" xmlns="http://www.w3.org/2000/svg" xmlns:xlink="http://www.w3.org/1999/xlink" version="1.1"><rect x="0" y="0" width="1000" height="200" fill="#3A3AAE"></rect><path d="M0 148L23.8 144.5C47.7 141 95.3 134 143 129.8C190.7 125.7 238.3 124.3 286 126.5C333.7 128.7 381.3 134.3 428.8 134C476.3 133.7 523.7 127.3 571.2 128.5C618.7 129.7 666.3 138.3 714 142.3C761.7 146.3 809.3 145.7 857 140.8C904.7 136 952.3 127 976.2 122.5L1000 118L1000 201L976.2 201C952.3 201 904.7 201 857 201C809.3 201 761.7 201 714 201C666.3 201 618.7 201 571.2 201C523.7 201 476.3 201 428.8 201C381.3 201 333.7 201 286 201C238.3 201 190.7 201 143 201C95.3 201 47.7 201 23.8 201L0 201Z" fill="#fa7268"></path><path d="M0 132L23.8 133.2C47.7 134.3 95.3 136.7 143 141C190.7 145.3 238.3 151.7 286 151.8C333.7 152 381.3 146 428.8 144.8C476.3 143.7 523.7 147.3 571.2 147.2C618.7 147 666.3 143 714 142.2C761.7 141.3 809.3 143.7 857 145.8C904.7 148 952.3 150 976.2 151L1000 152L1000 201L976.2 201C952.3 201 904.7 201 857 201C809.3 201 761.7 201 714 201C666.3 201 618.7 201 571.2 201C523.7 201 476.3 201 428.8 201C381.3 201 333.7 201 286 201C238.3 201 190.7 201 143 201C95.3 201 47.7 201 23.8 201L0 201Z" fill="#fd6053"></path><path d="M0 151L23.8 150.5C47.7 150 95.3 149 143 148.3C190.7 147.7 238.3 147.3 286 150.8C333.7 154.3 381.3 161.7 428.8 161.8C476.3 162 523.7 155 571.2 151.7C618.7 148.3 666.3 148.7 714 149.2C761.7 149.7 809.3 150.3 857 152.2C904.7 154 952.3 157 976.2 158.5L1000 160L1000 201L976.2 201C952.3 201 904.7 201 857 201C809.3 201 761.7 201 714 201C666.3 201 618.7 201 571.2 201C523.7 201 476.3 201 428.8 201C381.3 201 333.7 201 286 201C238.3 201 190.7 201 143 201C95.3 201 47.7 201 23.8 201L0 201Z" fill="#ff4c3d"></path><path d="M0 176L23.8 175C47.7 174 95.3 172 143 172.2C190.7 172.3 238.3 174.7 286 174.3C333.7 174 381.3 171 428.8 169.2C476.3 167.3 523.7 166.7 571.2 168C618.7 169.3 666.3 172.7 714 174.5C761.7 176.3 809.3 176.7 857 175C904.7 173.3 952.3 169.7 976.2 167.8L1000 166L1000 201L976.2 201C952.3 201 904.7 201 857 201C809.3 201 761.7 201 714 201C666.3 201 618.7 201 571.2 201C523.7 201 476.3 201 428.8 201C381.3 201 333.7 201 286 201C238.3 201 190.7 201 143 201C95.3 201 47.7 201 23.8 201L0 201Z" fill="#ff3325"></path><path d="M0 186L23.8 186.2C47.7 186.3 95.3 186.7 143 186C190.7 185.3 238.3 183.7 286 182.5C333.7 181.3 381.3 180.7 428.8 181.5C476.3 182.3 523.7 184.7 571.2 184.5C618.7 184.3 666.3 181.7 714 180.3C761.7 179 809.3 179 857 178.3C904.7 177.7 952.3 176.3 976.2 175.7L1000 175L1000 201L976.2 201C952.3 201 904.7 201 857 201C809.3 201 761.7 201 714 201C666.3 201 618.7 201 571.2 201C523.7 201 476.3 201 428.8 201C381.3 201 333.7 201 286 201C238.3 201 190.7 201 143 201C95.3 201 47.7 201 23.8 201L0 201Z" fill="#ff0000"></path></svg>